P2
5 5
255
204  136  119    0   34 
255  170  187   51   17
 51   34   17  238  238 
 51   34   17  238  238 
153   68   85    0  119 
