P2
5 4
15
12  8  7  0  2
15 10 11  3  1
 9  4  5  0  7
 3  2  1 14 14
