P2
6 6
15
 1  1  2  1  3  2
 2 10 13 11 11  1
 1 13  7  6 12  3
 3 13  4  8 14  1
 1 12 10 11 10  2
 1  2  2  3  1  1
